<?xml version="1.0" encoding="UTF-8"?>
<svg width="91px" height="90px" viewBox="0 0 91 90" version="1.1" xmlns="http://www.w3.org/2000/svg" xmlns:xlink="http://www.w3.org/1999/xlink">
    <title>Group 34</title>
    <defs>
        <polygon id="path-1" points="0 0 90 0 90 90 0 90"></polygon>
    </defs>
    <g id="Page-1" stroke="none" stroke-width="1" fill="none" fill-rule="evenodd">
        <g id="service-menu" transform="translate(-1383.000000, -212.000000)">
            <g id="Group-34" transform="translate(1383.500000, 212.000000)">
                <g id="Group-3">
                    <mask id="mask-2" fill="white">
                        <use xlink:href="#path-1"></use>
                    </mask>
                    <g id="Clip-2"></g>
                    <path d="M56.0001851,26.2477117 C55.3702475,21.0448265 50.1642417,16.7648813 44.8041525,16.9529587 C39.3325673,17.1451763 34.2927704,21.4573549 34.0351762,26.2518518 C38.1416007,26.0764903 42.2004102,26.1172995 44.9993445,30.0432688 C47.8177979,26.1081322 51.9082521,26.1436185 56.0001851,26.2477117 L56.0001851,26.2477117 Z M82.4832962,37.5084066 L82.4832962,38.7672836 C82.4832962,52.4150245 82.4835919,66.0624698 82.4821132,79.7105064 C82.4821132,80.0908015 82.493943,80.4743494 82.4531301,80.8510957 C82.3581959,81.7279034 81.7326944,82.3548283 80.8578796,82.4538943 C80.5103788,82.4935207 80.1563716,82.4837619 79.8050261,82.4837619 C70.8424625,82.4849448 61.8798989,82.4893806 52.9173354,82.4819876 C50.6327023,82.4799176 48.8230364,83.3298148 47.6279293,85.3282858 C47.4741417,85.5852659 47.379799,85.8777322 47.2115199,86.257863 L48.3294374,86.257863 C60.0743734,86.257863 71.8196052,86.257863 83.5645413,86.257863 C85.6882888,86.257863 86.2564157,85.6822618 86.2567114,83.5326783 C86.2570071,69.0944797 86.2567114,54.6559853 86.2561199,40.2177867 C86.2561199,39.9247289 86.2685412,39.6301925 86.2395582,39.3397961 C86.1327941,38.2740238 85.5001947,37.6095426 84.4437923,37.5178696 C83.8392887,37.4655273 83.2265043,37.5084066 82.4832962,37.5084066 L82.4832962,37.5084066 Z M7.51302677,37.4924377 C6.93721052,37.4924377 6.52908191,37.490072 6.12065754,37.4930292 C4.41538971,37.5063365 3.74168175,38.1814637 3.74138601,39.9108301 C3.7387243,54.5542579 3.7387243,69.1976857 3.74138601,83.8411135 C3.74168175,85.5684099 4.41686844,86.2550701 6.12391074,86.2556615 C18.0448153,86.2595058 29.9654241,86.2580771 41.8863286,86.2562529 C42.1557527,86.2559572 42.4254725,86.232004 42.7327519,86.217218 C41.8934265,83.870094 39.8791048,82.5020965 37.2969519,82.4902678 C33.2260168,82.4713417 29.154786,82.4849448 25.0832595,82.4846491 C19.9869752,82.4846491 14.8906909,82.4884935 9.79411084,82.4825791 C8.13852823,82.480509 7.52840552,81.8556542 7.513914,80.1919375 C7.51125229,79.8991754 7.51332251,79.6061175 7.51332251,79.3133554 C7.51302677,65.7827193 7.51332251,52.2520832 7.51302677,38.7217428 L7.51302677,37.4924377 Z M69.3181908,26.2388401 C69.4285039,24.6901582 69.0014475,24.0987196 67.6013889,23.7104402 C63.7989907,22.6559052 62.1694336,18.6926753 64.1373234,15.2851019 C64.7941738,14.1477655 64.7923994,13.5841246 63.8998398,12.590212 C62.8638438,11.4366111 61.7562774,10.3465898 60.6575833,9.25094981 C59.8345239,8.4306245 59.0703179,8.35669468 58.039941,8.9333473 C54.3865984,10.9770633 50.6386172,9.43488721 49.46924,5.40689476 C49.1261754,4.22431332 48.5536124,3.76683558 47.3185797,3.75293677 C45.7957867,3.73608077 44.2724023,3.73785509 42.7496094,3.75264105 C41.5287725,3.76446983 41.0999417,4.08088947 40.6527747,5.23596901 C40.5471936,5.5086222 40.4623147,5.78896409 40.3588038,6.06250443 C39.0456943,9.52715163 35.3888028,10.8374838 32.1666569,8.99899698 C31.012067,8.34043012 30.4670082,8.34664022 29.4809932,9.24887978 C28.2716903,10.3545742 27.1111855,11.5155681 25.9663551,12.6883908 C25.3115749,13.3593779 25.2089512,14.206318 25.7395184,15.0278261 C28.0291791,18.5702475 25.9151912,22.9847451 22.0891333,23.7494752 C20.9135454,23.9842763 20.4690401,24.9264379 20.7511812,26.2361787 C23.7160286,26.2361787 26.6983249,26.2488946 29.6797341,26.2060153 C29.8698983,26.2033538 30.1733331,25.7908254 30.2233141,25.5305924 C31.5636321,18.5542787 37.4087437,13.5125605 44.5149135,13.2328101 C51.3963169,12.9619312 57.6341783,17.5928953 59.475489,24.3394351 C59.6425852,24.9515741 59.6227702,25.8319304 60.0211392,26.1069493 C60.4851637,26.4272133 61.3144338,26.2341086 61.98548,26.235883 C64.4111836,26.2432759 66.8368871,26.2388401 69.3181908,26.2388401 L69.3181908,26.2388401 Z M43.1059826,80.639065 L43.1059826,79.5383978 C43.1059826,65.0679658 43.1083485,50.5978295 43.1042081,36.1276932 C43.1033209,32.2759495 40.8432347,30.0258214 36.9828703,30.0243428 C28.7510936,30.0204984 20.5196126,30.0231599 12.2878358,30.0231599 L11.2994548,30.0231599 L11.2994548,78.7455744 L12.3647296,78.7455744 C20.3909633,78.7452787 28.4171971,78.7230997 36.443135,78.7588818 C38.7304298,78.7692319 41.0307373,78.8943212 43.1059826,80.639065 L43.1059826,80.639065 Z M78.692432,78.7266484 L78.692432,30.0654478 C78.4451888,30.0491832 78.2458565,30.0249342 78.0468198,30.0249342 C69.5852489,30.023373 61.1233823,30.0213856 52.6618114,30.0287786 C52.1966039,30.02937 51.7189751,30.0539147 51.2682592,30.1574165 C48.5278825,30.7861157 46.8935936,32.9800571 46.8930021,36.0345416 C46.8882702,50.5555416 46.8901524,65.0768374 46.8927063,79.5981331 C46.8927063,79.8728563 46.9234639,80.148171 46.9483065,80.5651352 C48.9990049,78.8881111 51.3507721,78.7813564 53.6930755,78.7576989 C58.3478119,78.7106795 63.0031399,78.7313799 67.658172,78.7272398 C71.3141764,78.7245783 74.9698849,78.7266484 78.692432,78.7266484 L78.692432,78.7266484 Z M73.1359679,26.2388401 C75.5060713,26.2388401 77.7584681,26.2361787 80.0108648,26.2397273 C81.8749479,26.2423888 82.4770855,26.8495005 82.4832962,28.7190378 C82.4883238,30.3005446 82.4924643,31.8817556 82.4998579,33.4629667 C82.5001537,33.517379 82.5326857,33.5711999 82.5918347,33.7536587 C83.1487233,33.7536587 83.7514523,33.7462658 84.3538857,33.7551373 C87.5298952,33.8015653 89.9842861,36.2158176 89.9875393,39.3977571 C90.0043968,54.3644061 90.0032138,69.3307594 89.9896095,84.2968169 C89.9863563,87.5713166 87.5310782,89.9876389 84.2320386,89.9926662 C75.8257721,90.0059735 67.4192098,89.9973977 59.0126475,89.9973977 C41.4379787,89.9973977 23.8633098,89.9976934 6.28893666,89.997102 C2.23781652,89.997102 -1.47872687e-05,87.7490439 -1.47872687e-05,83.6799465 C-1.47872687e-05,69.1527364 -1.47872687e-05,54.625822 -1.47872687e-05,40.0986118 C-1.47872687e-05,35.9715534 2.21770584,33.7548416 6.34631126,33.7530673 C6.69469931,33.7530673 7.04249587,33.7530673 7.51302677,33.7530673 C7.51302677,32.4178947 7.51302677,31.1392045 7.51332251,29.8605143 C7.51332251,29.3628187 7.50533739,28.8645317 7.51568847,28.3668362 C7.54526301,26.9663096 8.22606886,26.2613148 9.63411259,26.2456417 C11.6842195,26.2225756 13.7346222,26.2391359 15.7850249,26.2388401 C16.1041341,26.2388401 16.4232434,26.2388401 16.8003188,26.2388401 C16.8467508,25.6728334 16.831372,25.1446788 16.9410936,24.644026 C17.4746182,22.2129177 18.9704983,20.7003136 21.3754997,20.0544626 C22.8311584,19.6635217 23.3262362,18.4312595 22.5924919,17.1235888 C22.5493131,17.0469975 22.4987406,16.9748419 22.4552661,16.8985464 C21.1578311,14.6383638 21.41927,12.0691546 23.1987699,10.1617652 C24.3974259,8.87716063 25.6309799,7.62301512 26.8920382,6.40021586 C28.7800766,4.56941773 31.4414893,4.20538729 33.6714094,5.6266142 C35.0989723,6.53654245 36.6939271,5.88241138 37.0579897,4.19740287 C37.6045271,1.66663718 39.8450941,0.0398853683 42.4523853,0.0132706322 C44.1511467,-0.00417680587 45.8502039,-0.00476824445 47.5489653,0.0135663515 C50.1550736,0.0419554034 52.2587104,1.67048153 52.9823993,4.19148848 C53.5318942,6.10538373 54.5613839,6.51879929 56.3213646,5.5316883 C58.4936144,4.31362055 61.0742885,4.57947219 62.9185567,6.28636393 C64.2502981,7.51921765 65.5459586,8.79524639 66.8016934,10.1058743 C68.5489571,11.9283923 68.8219301,14.5440294 67.5682655,16.7663598 C66.5683503,18.539197 67.0048705,19.6058565 68.9585645,20.161513 C71.420349,20.862072 73.0575953,22.9604961 73.1353764,25.5169894 C73.1412913,25.7165999 73.1359679,25.9168018 73.1359679,26.2388401 L73.1359679,26.2388401 Z" id="Fill-1" fill="#ededed" mask="url(#mask-2)"></path>
                </g>
                <path d="M54.5631432,62.119019 L58.1048777,62.119019 L58.1048777,54.6539777 L54.5631432,54.6539777 L54.5631432,62.119019 Z M61.8285062,58.3711517 C61.828795,60.1692459 61.8357243,61.9670422 61.8264852,63.7654344 C61.818401,65.2425894 61.1601183,65.9342329 59.7271983,65.9431727 C57.4711362,65.9580724 55.2150741,65.9574764 52.959012,65.9437687 C51.5206063,65.9351269 50.8493311,65.2455693 50.8461552,63.7809301 C50.8377823,60.1850396 50.8372049,56.5891491 50.8464439,52.9929606 C50.8501973,51.58792 51.5517882,50.8563454 52.9006904,50.8488956 C55.1853359,50.8363798 57.4699813,50.8369758 59.7546268,50.8485976 C61.1119019,50.8554514 61.8155138,51.5801722 61.8253303,52.9774649 C61.8383227,54.7752611 61.8285062,56.5733554 61.8285062,58.3711517 L61.8285062,58.3711517 Z" id="Fill-16" fill="#ededed"></path>
                <path d="M62.8072096,72.8198695 C59.4860348,72.8195985 56.1651517,72.8336869 52.8442685,72.8136381 C51.2829751,72.8038846 50.3652706,71.4413772 51.093427,70.2631023 C51.5145155,69.5814422 52.1922229,69.3861016 53.0029057,69.3893527 C56.2949192,69.4026283 59.5872244,69.3945004 62.8792379,69.3945004 C66.1712515,69.3945004 69.463265,69.4023574 72.7552786,69.3901655 C73.6064955,69.3869144 74.296159,69.6199142 74.6866282,70.3592824 C75.3141783,71.5473109 74.3891834,72.8068648 72.8564681,72.8147218 C69.5070069,72.8315195 66.1569625,72.8198695 62.8072096,72.8198695" id="Fill-18" fill="#ededed"></path>
                <path d="M66.252859,47.4004169 C64.1376663,47.4004169 62.0224736,47.4122961 59.9072809,47.3959221 C58.7323077,47.3869324 57.946682,46.7807712 57.7571313,45.8005753 C57.4946533,44.4405654 58.3489874,43.3470352 59.7659466,43.3027289 C61.0159564,43.2638807 62.2680758,43.2927761 63.5192911,43.2927761 C66.5876615,43.2927761 69.6563333,43.2747967 72.7247037,43.3014447 C74.2781755,43.3149292 75.2081491,44.5622471 74.7820367,45.9720213 C74.5066006,46.8828683 73.8005319,47.3869324 72.6876374,47.395601 C70.5429121,47.4119751 68.3978855,47.4004169 66.252859,47.4004169" id="Fill-19" fill="#ededed"></path>
                <path d="M66.3400547,35.7296063 C68.4831814,35.7298774 70.6266093,35.7184895 72.7697361,35.7344868 C74.0444102,35.7437057 74.9050335,36.4671114 74.8851591,37.4611165 C74.8655857,38.4372262 74.0242346,39.149244 72.8088827,39.1524977 C68.4630058,39.1638857 64.117129,39.1617165 59.7709511,39.15304 C58.7693999,39.151142 58.0220006,38.6687811 57.7877232,37.9326317 C57.5486277,37.1818406 57.8693288,36.3288292 58.6299777,35.9912579 C59.035898,35.8112199 59.5390826,35.7458748 59.9998082,35.7401808 C62.1128222,35.7149647 64.2264384,35.729064 66.3400547,35.7296063" id="Fill-20" fill="#ededed"></path>
                <path d="M70.0529783,63.8886117 C69.2127975,63.8886117 68.3726166,63.9004927 67.5330426,63.8857217 C66.1615665,63.8619597 65.2825473,63.0662531 65.2673762,61.8566379 C65.2519015,60.6444538 66.1330446,59.8015443 67.4890462,59.7854889 C69.19884,59.764938 70.9092407,59.767828 72.6190345,59.7842045 C73.9920278,59.7973699 74.8701366,60.5998197 74.8853078,61.8100772 C74.900479,63.0498766 73.9980963,63.8667763 72.5732175,63.8863639 C71.7333401,63.8982449 70.8931592,63.8886117 70.0529783,63.8886117" id="Fill-21" fill="#ededed"></path>
                <path d="M70.0766252,52.9095434 C71.0365674,52.9095434 71.9974198,52.8862755 72.9561484,52.9154957 C74.0693051,52.9495859 74.8581324,53.6492464 74.8848312,54.5694109 C74.9121368,55.5158195 74.0957005,56.2952943 72.9555416,56.3131511 C71.0365674,56.3434535 69.1157728,56.3434535 67.1964953,56.3131511 C66.0566398,56.2952943 65.2411136,55.5163606 65.2678124,54.5688698 C65.2939044,53.651952 66.0866759,52.9493153 67.197102,52.9154957 C68.1558306,52.8865461 69.116683,52.9095434 70.0766252,52.9095434" id="Fill-22" fill="#ededed"></path>
                <path d="M54.2748092,37.4210063 C54.2794298,38.3944052 53.4977979,39.1769415 52.5376166,39.1600365 C51.621117,39.1442222 50.8476755,38.3633218 50.8397582,37.4458185 C50.8315678,36.4830534 51.6164758,35.7133321 52.5944029,35.7253292 C53.5488511,35.7367809 54.2704204,36.4650578 54.2748092,37.4210063" id="Fill-23" fill="#ededed"></path>
                <path d="M54.2746067,45.0190235 C54.2604841,45.9698582 53.5006324,46.7142635 52.5416797,46.7175573 C51.6109721,46.7205604 50.8206599,45.9164713 50.8400438,44.9864438 C50.8591509,44.0635345 51.6630319,43.282169 52.5929087,43.2824427 C53.5333083,43.2824427 54.2890063,44.0627132 54.2746067,45.0190235" id="Fill-24" fill="#ededed"></path>
                <path d="M19.0163196,46.9876882 L36.0080571,46.9876882 L36.0080571,39.5492771 L19.0163196,39.5492771 L19.0163196,46.9876882 Z M27.4562757,50.8385351 C24.1308995,50.8385351 20.8055232,50.8415168 17.4798471,50.8376406 C15.8492375,50.8355534 15.1273202,50.1417152 15.1222237,48.5381647 C15.1120305,45.02395 15.1117307,41.5100336 15.1225235,37.9961171 C15.12762,36.4119476 15.8159597,35.7315269 17.4120924,35.7300361 C24.1222053,35.7234764 30.8323181,35.7237745 37.5427308,35.7297379 C39.1991232,35.7312288 39.8427927,36.3922684 39.8442917,38.0605215 C39.8481891,41.5449193 39.8484889,45.0296152 39.8442917,48.514013 C39.8421931,50.1491694 39.1568514,50.8352552 37.5217448,50.8373424 C34.1666884,50.8418149 30.811632,50.8385351 27.4562757,50.8385351 L27.4562757,50.8385351 Z" id="Fill-25" fill="#ededed"></path>
                <path d="M22.6306335,65.2632502 C20.8325664,65.2632502 19.0344992,65.2740966 17.236432,65.259454 C15.9621431,65.2488787 15.1151,64.5522691 15.1145038,63.55657 C15.1139082,62.5519227 15.9648246,61.8422974 17.2295794,61.8387723 C20.8552098,61.829824 24.4808402,61.829824 28.1064706,61.8387723 C29.3742049,61.8420262 30.2251212,62.5459572 30.2290076,63.5503333 C30.2328676,64.5482017 29.3879101,65.2486076 28.1130253,65.2591828 C26.28576,65.2743678 24.4581968,65.2632502 22.6306335,65.2632502" id="Fill-26" fill="#ededed"></path>
                <path d="M32.6343895,54.2786301 C34.0623629,54.2786301 35.4903364,54.2689883 36.9180156,54.2815226 C38.3203897,54.2937355 39.172819,55.0930373 39.1601664,56.3541793 C39.1478081,57.5802896 38.3124451,58.3789486 36.9677431,58.3856978 C34.0829601,58.4008033 31.1978829,58.4004819 28.3130999,58.3860192 C26.9778137,58.3795914 26.1245018,57.5728976 26.1071413,56.3609285 C26.0891923,55.1161775 26.9639842,54.2943783 28.3507633,54.2815226 C29.7784425,54.2683455 31.206416,54.2786301 32.6343895,54.2786301" id="Fill-27" fill="#ededed"></path>
                <path d="M20.6756063,69.3950087 C21.8195382,69.394467 22.9637597,69.3809245 24.1074021,69.398259 C25.3691726,69.4169477 26.123108,70.0837838 26.1066048,71.1292701 C26.0909702,72.1235655 25.3150305,72.8063818 24.1294063,72.8134239 C21.7845051,72.827779 19.4393144,72.8285916 17.0944132,72.8128822 C15.9322409,72.8050275 15.1253215,72.0870005 15.1145038,71.111123 C15.1038963,70.147163 15.9131319,69.4210105 17.0724089,69.4004258 C18.2730886,69.3787577 19.474637,69.3955504 20.6756063,69.3950087" id="Fill-28" fill="#ededed"></path>
                <path d="M34.2891981,72.8190971 C33.3868091,72.8190971 32.4838115,72.8331726 31.581727,72.8155783 C30.3533824,72.7920289 29.5389498,72.0933982 29.5419847,71.0959345 C29.5450367,70.080335 30.3205129,69.4179757 31.59664,69.4039002 C33.4315482,69.3841404 35.2667607,69.3844111 37.1016689,69.404983 C38.3351874,69.4185171 39.1663591,70.1314939 39.1603053,71.1097392 C39.1541852,72.082571 38.3035353,72.794465 37.0867559,72.8158489 C36.154541,72.8320899 35.2217173,72.8190971 34.2891981,72.8190971" id="Fill-29" fill="#ededed"></path>
                <path d="M18.9635499,54.2912014 C19.583721,54.2912014 20.2065755,54.2489188 20.8225724,54.3001704 C21.9287429,54.3927436 22.6720538,55.2367937 22.6717557,56.3271719 C22.6714575,57.4188313 21.932619,58.2945933 20.8228705,58.3490481 C19.5270707,58.4127923 18.2235188,58.4150346 16.9280171,58.342962 C15.8462956,58.2827414 15.0880768,57.3445164 15.1152092,56.2797641 C15.1423417,55.2351921 15.8731299,54.4013924 16.9277189,54.3078582 C17.602155,54.2479578 18.2846414,54.2966469 18.9635499,54.2966469 L18.9635499,54.2912014 Z" id="Fill-30" fill="#ededed"></path>
                <path d="M36.3865768,65.2562547 C36.0442088,65.2562547 35.699815,65.2787224 35.3600517,65.2519236 C34.3746224,65.1745048 33.6615246,64.4525609 33.6641221,63.5598085 C33.6667339,62.6768011 34.3896715,61.9277877 35.3681551,61.8647157 C36.0497075,61.8208631 36.7393634,61.8224873 37.4214947,61.8617381 C38.4416528,61.9204789 39.1851382,62.6938548 39.1596705,63.6077215 C39.1344921,64.4988498 38.4121333,65.189393 37.4133913,65.255984 C37.0727597,65.2787224 36.7289447,65.2597738 36.3865768,65.2597738 L36.3865768,65.2562547 Z" id="Fill-31" fill="#ededed"></path>
            </g>
        </g>
    </g>
</svg>
