<svg xmlns="http://www.w3.org/2000/svg" xmlns:xlink="http://www.w3.org/1999/xlink" width="143" height="186" viewBox="0 0 143 186">
  <defs>
    <clipPath id="clip-path">
      <rect id="Rectangle_20" data-name="Rectangle 20" width="143" height="186" transform="translate(563.683 708.415)" fill="#fff" stroke="#707070" stroke-width="1"/>
    </clipPath>
  </defs>
  <g id="Turn_ratings" data-name="Turn ratings" transform="translate(-563.683 -708.415)" opacity="0.49" clip-path="url(#clip-path)">
    <g id="calendar" transform="translate(572.257 711.051)">
      <path id="Path_9" data-name="Path 9" d="M768,516.8v-3.073a16.682,16.682,0,0,1,2.116-2.879,73.19,73.19,0,0,0,14.736-18.568c11.8-20.478,17.159-42.723,17.656-66.193.261-12.288.056-24.581.071-36.874.005-4.221,2.3-6.505,6.541-6.505q13.154-.016,26.307-.005h2.11c0-1.875-.005-3.473,0-5.066.02-3.862,2.4-6.495,5.824-6.454,3.35.036,5.675,2.633,5.7,6.387.01,1.7,0,3.391,0,5.02h28.812c0-1.762-.01-3.411,0-5.066.025-3.734,2.382-6.331,5.737-6.346s5.747,2.587,5.783,6.305c.015,1.7,0,3.406,0,5.066h29.2c0-1.875-.021-3.6.005-5.327a5.764,5.764,0,1,1,11.514-.015c.031,1.772,0,3.55,0,5.491h2.259c8.19,0,16.385.118,24.576-.056,3.57-.077,6.208.948,7.734,4.282V539.849c-1.526,3.329-4.17,4.282-7.729,4.277q-72.836-.115-145.667.021c-6.571.015-9.117-2.1-8.764-8.82.246-4.7.046-9.425.046-14.306H800.3c-8.252,0-16.509-.113-24.755.051C772.021,521.148,769.491,520.042,768,516.8Zm18.957-7.3h1.726q65.968,0,131.94-.051a3.76,3.76,0,0,0,2.586-1.158c3.56-4.354,7.32-8.595,10.388-13.281,9.455-14.46,14.875-30.512,17.584-47.492.973-6.1,1.434-12.288,2.146-18.593H814.042C812.67,458.234,805.11,485.443,786.957,509.5ZM953.072,394.372H930.114c0,1.731.005,3.329,0,4.922-.02,3.867-2.4,6.495-5.824,6.459-3.355-.036-5.675-2.633-5.7-6.387-.01-1.7,0-3.391,0-5.02h-29.2c0,1.823.02,3.539-.005,5.255-.046,3.57-2.453,6.141-5.742,6.152s-5.727-2.561-5.772-6.121c-.021-1.767-.005-3.529-.005-5.245H849.057c0,1.88.026,3.606-.005,5.332a5.761,5.761,0,1,1-11.509-.01c-.026-1.772-.005-3.545-.005-5.347H814.253V417.2H953.072Zm.01,88.6c-.512,1.06-.8,1.659-1.086,2.264-5.716,12.262-12.718,23.649-22.481,33.176a8.962,8.962,0,0,1-6.7,2.653q-53.191-.085-106.386-.036H814.2v11.422h138.89C953.082,516.062,953.082,499.784,953.082,482.974Z" transform="translate(-768 -371.178)" fill="#ededed"/>
    </g>
  </g>
</svg>
