<svg xmlns="http://www.w3.org/2000/svg" xmlns:xlink="http://www.w3.org/1999/xlink" width="121" height="176" viewBox="0 0 121 176">
  <defs>
    <clipPath id="clip-path">
      <rect id="Rectangle_116" data-name="Rectangle 116" width="121" height="176" rx="2" transform="translate(967 696.378)" fill="#fff" stroke="#707070" stroke-width="1"/>
    </clipPath>
  </defs>
  <g id="Auto_Parts" data-name="Auto Parts" transform="translate(-967 -696.378)" opacity="0.13" clip-path="url(#clip-path)">
    <g id="car-parts" transform="translate(949.231 696.378)">
      <path id="Path_171" data-name="Path 171" d="M761.984,434c1.06-2.8,1.823-5.765,3.251-8.359a17.433,17.433,0,0,1,9.929-7.974,2.339,2.339,0,0,0,1.77-1.96,30.66,30.66,0,0,1,10.7-17.668,4.485,4.485,0,0,0,.453-.417c-1.694-2.789-3.676-5.282-4.843-8.111a19.516,19.516,0,0,1,11.06-25.4,2.29,2.29,0,0,0,1.716-2.444,17.359,17.359,0,0,1,1.122-5.952A7.393,7.393,0,0,1,804,351.343c2.683-.107,5.375-.129,8.058-.018a1.881,1.881,0,0,0,2.253-1.65c.944-3.521,3.078-5.951,6.776-6.714a12.6,12.6,0,0,1,2.554-.191q52.213-.013,104.426,0c6.093,0,9.521,3.455,9.526,9.584q.007,13.118,0,26.236c0,6.036-3.419,9.459-9.441,9.477-2.448.009-4.9,0-7.508,0v42.507h-1.987c-10.515,0-21.034-.022-31.549.044a4.042,4.042,0,0,0-2.483,1.042c-2.422,2.253-4.719,4.643-6.834,6.75,1.49,3.871,2.865,7.548,4.36,11.171a2.018,2.018,0,0,0,1.557.812c3.707.071,7.419.035,11.255.035v22.653c-3.6,0-7.18.08-10.759-.04-1.477-.049-1.991.483-2.461,1.836-1.157,3.326-2.581,6.563-3.982,10.045,2.772,2.736,5.77,5.7,8.7,8.586l-16.178,16.125c-2.475-2.492-5.118-5.1-7.681-7.77a1.741,1.741,0,0,0-2.448-.426c-2.98,1.419-6.053,2.643-9.145,3.8-.909.342-1.255.683-1.242,1.659.053,3.827.022,7.659.022,11.486H827.148c0-3.827-.035-7.65.009-11.477.014-.967-.319-1.321-1.233-1.667-3.135-1.188-6.244-2.47-9.291-3.871a1.573,1.573,0,0,0-2.178.355c-2.617,2.71-5.3,5.353-7.872,7.947l-16.067-16.041c2.918-2.856,5.929-5.8,8.652-8.47-1.548-4.014-2.936-7.677-4.408-11.3a1.681,1.681,0,0,0-1.268-.736c-1.592-.089-3.2-.036-4.794-.036H781.74V456.119c-.461-.053-.736-.1-1.02-.12-6.466-.4-11.694-3.224-15.185-8.612-1.654-2.554-2.4-5.7-3.565-8.572C761.984,437.2,761.984,435.6,761.984,434Zm44.72,3.778c-.426.683-.714,1.162-1.02,1.632a41.42,41.42,0,0,0-5.566,12.258c-.364,1.419-.355,3.379-1.282,4.089-.953.727-2.843.253-4.324.262-2.315.018-4.634,0-6.949,0v11.331c3.308,0,6.5.058,9.694-.027,1.348-.035,2.04.217,2.266,1.743a21.928,21.928,0,0,0,1.486,5.433c1.623,3.752,3.468,7.406,5.446,11.579-2.408,2.377-5.149,5.078-7.739,7.628,2.634,2.634,5.211,5.215,7.885,7.894,2.59-2.625,5.268-5.339,7.965-8.076.586.359,1.029.608,1.455.887a38.779,38.779,0,0,0,14.746,6.151c1.636.288,2.12.927,2.044,2.555-.138,3.122-.04,6.253-.04,9.411h11.335c0-3.472.031-6.781-.018-10.094-.013-1.029.257-1.486,1.362-1.694a26.716,26.716,0,0,0,5.6-1.512c3.81-1.628,7.522-3.49,11.783-5.5l7.548,7.721c2.652-2.656,5.224-5.229,7.947-7.956-2.63-2.532-5.375-5.171-8.142-7.832.452-.71.754-1.189,1.06-1.659a40.7,40.7,0,0,0,5.623-12.6c.98-4.058.994-4.058,5.175-4.058h7.291V456.022h-1.8c-2.8,0-5.6-.044-8.4.022-1.06.027-1.463-.3-1.667-1.379a26.843,26.843,0,0,0-1.517-5.606c-1.632-3.805-3.5-7.508-5.388-11.482,2.1-2.08,4.448-4.412,6.8-6.736.616-.608,1.135-1.193.31-2.013-2.373-2.364-4.741-4.736-7.255-7.242-2.781,2.834-5.455,5.557-8.156,8.306a15.728,15.728,0,0,0-1.53-.954c-3.8-1.787-7.592-3.623-11.45-5.282-1.6-.687-4.076-.479-4.87-1.592-.874-1.228-.293-3.508-.31-5.331-.022-1.969,0-3.938,0-5.894H832.763c0,3.37-.044,6.621.022,9.867.027,1.215-.24,1.818-1.592,2.049A24.647,24.647,0,0,0,825.6,424.3c-3.747,1.619-7.4,3.473-11.371,5.366l-7.61-7.863c-2.732,2.728-5.349,5.344-8.071,8.067C801.213,432.451,803.95,435.107,806.7,437.781Zm55.137-15.238c2.763-2.79,5.721-5.779,8.714-8.807,3.419,3.415,6.736,6.8,10.16,10.08a4.007,4.007,0,0,0,2.51,1.029c10,.071,20,.049,30,.04.541,0,1.082-.075,1.628-.115V393.917a4.506,4.506,0,0,0-.723-.12q-21.859-.013-43.718-.031c-.971,0-1.215.466-1.472,1.264a13.9,13.9,0,0,1-14.985,9.876,14.068,14.068,0,1,1,4.985-27.606,44.352,44.352,0,0,1,4.843,1.951v-30.8c-3.335,0-6.537.067-9.73-.031a1.918,1.918,0,0,0-2.239,1.659,13.992,13.992,0,0,1-16.75,9.2,13.621,13.621,0,0,1-10.058-9.566,1.561,1.561,0,0,0-1.823-1.286,3.171,3.171,0,0,0-3.308,2.413c-.506,1.636-1.144,3.229-1.61,4.874a1.457,1.457,0,0,1-1.712,1.2c-3.543-.053-7.087-.022-10.63-.022-3.783,0-5.153,1.982-3.929,5.668a19.881,19.881,0,0,1,19.269,17.18,19.068,19.068,0,0,1-2.816,13.131,19.867,19.867,0,0,1-16.631,9.424V417.94l.373.226c1.361-1.508,2.723-3.016,4.32-4.785q4.73,4.81,8.865,9.025c3.96-1.641,7.788-3.229,11.819-4.9V405.239h22.622v12.284C853.863,419.213,857.69,420.814,861.841,422.544Zm58.8-40.09c2.5,0,4.825,0,7.149,0,3.269-.009,4.124-.874,4.124-4.2q.006-12.852,0-25.7a3.8,3.8,0,0,0-.164-1.849c-.506-.8-1.255-1.965-1.973-2.018-2.989-.226-6-.093-9.189-.093v22.4h-5.685V348.611h-14.1c2.581,3.526,2.887,7.331,2.852,11.278-.076,8.741-.022,17.482-.022,26.218v1.84h11.42V376.883h5.6Zm-50.876-33.926v39.447H897.75V368.444c-6.271,3.7-12.333,3.805-17.668-1.073-5.938-5.433-6.089-11.943-2.16-18.839C875.154,348.527,872.543,348.527,869.762,348.527ZM799.28,438.318c-2.785-2.741-5.779-5.686-8.8-8.666.758-.8,1.464-1.534,2.191-2.3a5.921,5.921,0,0,0-.412-.594,13.941,13.941,0,0,0-20.059-.794,13.235,13.235,0,0,0-3.716,14.692c1.809,5.459,5.694,8.905,11.428,9.433,4.8.439,9.677.089,14.444.089C795.918,446.407,797.528,442.531,799.28,438.318Zm2.1-41.736a14.16,14.16,0,1,0,.417-28.316c-7.632-.244-14.182,6.253-14.333,14.209C787.324,389.882,793.812,396.463,801.382,396.582Zm88.008-48.1a8.46,8.46,0,1,0,8.493,8.439A8.424,8.424,0,0,0,889.39,348.483ZM863.9,390.9a8.446,8.446,0,1,0-8.466,8.484A8.381,8.381,0,0,0,863.9,390.9Zm-67.945,31.465c0-6.972.014-13.517-.013-20.063a1.9,1.9,0,0,0-2.79-1.335,25.282,25.282,0,0,0-10.67,15.451A20.808,20.808,0,0,1,795.954,422.362Zm34.72-73.812a8.2,8.2,0,0,0,8.178,5.526,7.944,7.944,0,0,0,7.313-5.526Z" transform="translate(-761.97 -342.763)" fill="#fff"/>
      <path id="Path_183" data-name="Path 183" d="M913.831,599.144a28.061,28.061,0,0,1-38.233-7.821c-8.409-12.032-5.76-29.264,5.862-38.088,12.359-9.384,29.269-7.57,39.059,4.189,9.225,11.079,8.439,28.5-1.726,37.712q-1.907-1.92-3.818-3.844a22.594,22.594,0,1,0-35.342-4.092c5.058,8.369,17.66,14.945,31.259,7.349C911.849,596.054,912.815,597.564,913.831,599.144Z" transform="translate(-822.362 -456.357)" fill="#fff"/>
      <path id="Path_184" data-name="Path 184" d="M913.007,606.462a16.9,16.9,0,1,1,16.932-16.755A17.019,17.019,0,0,1,913.007,606.462Zm-11.225-16.914a11.26,11.26,0,1,0,11.344-11.189A11.373,11.373,0,0,0,901.783,589.548Z" transform="translate(-836.56 -470.591)" fill="#fff"/>
      <path id="Path_185" data-name="Path 185" d="M795.933,551.307a8.405,8.405,0,1,1,8.532-8.36A8.452,8.452,0,0,1,795.933,551.307Zm2.869-8.417a2.885,2.885,0,0,0-2.843-2.785,2.8,2.8,0,0,0,.031,5.6A2.894,2.894,0,0,0,798.8,542.89Z" transform="translate(-776.269 -449.425)" fill="#fff"/>
      <path id="Path_186" data-name="Path 186" d="M840.832,429.936a8.409,8.409,0,1,1,8.329-8.514A8.375,8.375,0,0,1,840.832,429.936Zm2.714-8.175a2.851,2.851,0,0,0-2.6-2.993,2.763,2.763,0,0,0-2.926,2.458,2.813,2.813,0,0,0,2.476,3.085A2.885,2.885,0,0,0,843.547,421.761Z" transform="translate(-801.117 -381.902)" fill="#fff"/>
    </g>
  </g>
</svg>
